<svg xmlns="http://www.w3.org/2000/svg" xmlns:xlink="http://www.w3.org/1999/xlink" width="114" height="86" viewBox="0 0 114 86">
  <defs>
    <filter id="Background" x="0" y="0" width="114" height="86" filterUnits="userSpaceOnUse">
      <feOffset dy="2" input="SourceAlpha"/>
      <feGaussianBlur stdDeviation="6" result="blur"/>
      <feFlood flood-color="#7a879d" flood-opacity="0.102"/>
      <feComposite operator="in" in2="blur"/>
      <feComposite in="SourceGraphic"/>
    </filter>
  </defs>
  <g id="apple-pay" transform="translate(18 16)">
    <g transform="matrix(1, 0, 0, 1, -18, -16)" filter="url(#Background)">
      <rect id="Background-2" data-name="Background" width="78" height="50" rx="8" transform="translate(18 16)" fill="#fff"/>
    </g>
    <path id="Apple_Pay-Logo.wine" d="M9.111,2.64A3.063,3.063,0,0,1,6.657,3.8a3.473,3.473,0,0,1,.877-2.542A3.662,3.662,0,0,1,9.969,0a3.7,3.7,0,0,1-.857,2.64m.847,1.344c-1.354-.078-2.513.77-3.156.77s-1.636-.731-2.708-.711A4,4,0,0,0,.7,6.108c-1.461,2.513-.38,6.234,1.033,8.28.692,1.013,1.52,2.124,2.611,2.085,1.033-.039,1.442-.672,2.688-.672s1.617.672,2.708.653c1.13-.019,1.841-1.013,2.533-2.026A8.885,8.885,0,0,0,13.4,12.1a3.67,3.67,0,0,1-2.2-3.341A3.748,3.748,0,0,1,12.979,5.62a3.86,3.86,0,0,0-3.02-1.636m7.822-2.825V16.345h2.357V11.153H23.4a4.82,4.82,0,0,0,5.075-5.007,4.763,4.763,0,0,0-5-4.987Zm2.357,1.987h2.718c2.046,0,3.214,1.091,3.214,3.01s-1.169,3.02-3.224,3.02H20.138ZM32.782,16.462a3.9,3.9,0,0,0,3.477-1.938h.049v1.822H38.49V8.786c0-2.192-1.753-3.6-4.452-3.6-2.5,0-4.354,1.432-4.422,3.4h2.124A2.069,2.069,0,0,1,33.97,7.033c1.442,0,2.25.672,2.25,1.909V9.78l-2.942.175c-2.737.166-4.218,1.286-4.218,3.234C29.061,15.157,30.59,16.462,32.782,16.462Zm.633-1.8c-1.257,0-2.055-.6-2.055-1.529,0-.955.77-1.51,2.24-1.6l2.62-.166v.857A2.562,2.562,0,0,1,33.415,14.66ZM41.4,20.475c2.3,0,3.38-.877,4.325-3.536l4.14-11.611h-2.4L44.695,14.3h-.049L41.87,5.328H39.405L43.4,16.384l-.214.672A1.874,1.874,0,0,1,41.2,18.634c-.185,0-.545-.019-.692-.039v1.822A6.493,6.493,0,0,0,41.4,20.475Z" transform="translate(14 15)"/>
  </g>
</svg>
