<svg xmlns="http://www.w3.org/2000/svg" xmlns:xlink="http://www.w3.org/1999/xlink" width="114" height="86" viewBox="0 0 114 86">
  <defs>
    <filter id="Background" x="0" y="0" width="114" height="86" filterUnits="userSpaceOnUse">
      <feOffset dy="2" input="SourceAlpha"/>
      <feGaussianBlur stdDeviation="6" result="blur"/>
      <feFlood flood-color="#7a879d" flood-opacity="0.102"/>
      <feComposite operator="in" in2="blur"/>
      <feComposite in="SourceGraphic"/>
    </filter>
  </defs>
  <g id="visa" transform="translate(18 16)">
    <g transform="matrix(1, 0, 0, 1, -18, -16)" filter="url(#Background)">
      <rect id="Background-2" data-name="Background" width="78" height="50" rx="8" transform="translate(18 16)" fill="#fff"/>
    </g>
    <g id="visa-seeklogo.com" transform="translate(15 17)">
      <path id="Path_11516" data-name="Path 11516" d="M25.342-77.553c-.028,2.229,1.964,3.473,3.465,4.212,1.542.759,2.06,1.245,2.054,1.924-.012,1.038-1.23,1.5-2.37,1.515a8.2,8.2,0,0,1-4.065-.977l-.717,3.391a11.806,11.806,0,0,0,4.4.821c4.158,0,6.879-2.076,6.893-5.294.016-4.084-5.587-4.31-5.549-6.136.013-.553.536-1.144,1.68-1.294a7.379,7.379,0,0,1,3.9.692l.7-3.281a10.509,10.509,0,0,0-3.7-.687c-3.914,0-6.667,2.1-6.689,5.115m17.081-4.832a1.8,1.8,0,0,0-1.685,1.135L34.8-66.909h4.155l.827-2.311h5.078l.48,2.311H49L45.8-82.386H42.423M43-78.2l1.2,5.811H40.919L43-78.2M20.3-82.386,17.028-66.909h3.959l3.274-15.476H20.3m-5.858,0L10.325-71.852,8.658-80.809a1.852,1.852,0,0,0-1.826-1.577H.094L0-81.936A16.359,16.359,0,0,1,3.907-80.62a1.693,1.693,0,0,1,.94,1.36L8-66.909h4.185L18.6-82.386H14.446" transform="translate(0 82.668)" fill="#1c1b76"/>
    </g>
  </g>
</svg>
